<?xml version="1.0" encoding="utf-8"?>
<!-- Generator: Adobe Illustrator 27.1.1, SVG Export Plug-In . SVG Version: 6.00 Build 0)  -->
<svg version="1.1" id="Layer_1" xmlns="http://www.w3.org/2000/svg" xmlns:xlink="http://www.w3.org/1999/xlink" x="0px" y="0px"
	 viewBox="0 0 68 68" style="enable-background:new 0 0 68 68;" xml:space="preserve">
<style type="text/css">
	.st0{fill:#FFFFFF;}
</style>
<g>
	<path class="st0" d="M32.7,49.1c0.5,0,0.9,0.5,0.9,1v5h0.9v-5c0-0.5,0.4-0.9,0.9-1L34,47.3L32.7,49.1z"/>
	<path class="st0" d="M37.3,42.6c0,0.6-0.4,1-1,1h-4.5c-0.6,0-1-0.4-1-1v-3.5h-6.5v19.4h19.4V39.1h-6.5V42.6z M38.2,50.5
		c-0.2,0.3-0.5,0.6-0.9,0.6h-0.9v5c0,0.6-0.4,1-1,1h-2.9c-0.6,0-1-0.4-1-1v-5h-0.9c-0.4,0-0.7-0.2-0.9-0.6c-0.2-0.3-0.1-0.7,0.1-1.1
		l3.4-4.4c0.2-0.2,0.5-0.4,0.8-0.4h0c0.3,0,0.6,0.1,0.8,0.4l3.3,4.4C38.4,49.8,38.4,50.2,38.2,50.5z"/>
	<path class="st0" d="M36.7,31.7h-5.3c0.4,1.1,1.4,1.8,2.6,1.8C35.3,33.5,36.3,32.8,36.7,31.7z"/>
	<path class="st0" d="M34,13.7c-1.6,0-2.9,1.1-3.4,2.5h6.7C36.9,14.7,35.6,13.7,34,13.7z"/>
	<path class="st0" d="M29.5,32l-4.8,2.5l-0.2,2.5h7.3h4.5h7.3l-0.2-2.5l-4.7-2.4c-0.6,2-2.4,3.4-4.6,3.4C31.9,35.5,30.1,34,29.5,32z
		"/>
	<rect x="32.7" y="39.1" class="st0" width="2.5" height="2.5"/>
	<path class="st0" d="M29.4,29L22,33.3v4.4h0.3l0.4-3.9c0-0.3,0.2-0.6,0.5-0.8l6.1-3.2c0.1-0.1,0.3-0.1,0.5-0.1h0.4c0,0,0,0,0,0h7.6
		c0,0,0,0,0,0h0.3c0.2,0,0.3,0,0.5,0.1l6.1,3.2c0.3,0.2,0.5,0.5,0.5,0.8l0.4,3.9H46v-4.4L38.6,29H29.4z"/>
	<path class="st0" d="M49.8,17.1c0,0.2,0.1,0.4,0.1,0.6c0,0.1,0,0.2,0.1,0.3c0,0.1,0,0.1,0,0.2H38.5h-9H17.9c0-0.1,0-0.2,0.1-0.3
		c0,0,0,0,0-0.1c0.1-0.2,0.1-0.5,0.1-0.8c0.1-0.5,0.1-1,0.2-1.6h-1.2h-1.2c0.1,3,0.9,4.3,1.2,4.4c0.1,0,0.2-0.1,0.3-0.3
		c0,0,0-0.1,0.1-0.1c0-0.1,0.1-0.2,0.1-0.3L30.8,21c1.1,0.1,2,1.1,2,2.2c0,0.9-0.5,1.7-1.4,2.1l-1.1,0.3c-0.1,0-0.1,0.1-0.1,0.2V27
		h7.7v-1.2c0-0.1,0-0.1-0.1-0.2l-1-0.3c-0.9-0.4-1.5-1.2-1.5-2.1c0-1.1,0.8-2.1,2-2.2l13.2-1.8c0,0,0,0,0,0c0,0.1,0.1,0.1,0.1,0.2
		c0.2,0.3,0.3,0.5,0.4,0.6c0.2-0.1,1-1.4,1.2-4.4h-1.2h-1.2C49.7,16.1,49.8,16.6,49.8,17.1z"/>
	<path class="st0" d="M62.9,10.8l-4.2,0.6c-2.2,0.3-4.5,0-6.5-0.9l-0.3-0.1c0-0.5-0.5-0.9-1-0.9c-0.6,0-1,0.4-1,1v0.4l-3.4,0.5
		c-2.2,0.3-4.5,0-6.5-0.9l-0.9-0.4c-0.5-0.2-1.1,0-1.3,0.5c-0.2,0.5,0,1.1,0.5,1.3l0.9,0.4c1.8,0.7,3.7,1.1,5.6,1.1
		c0.6,0,1.3,0,1.9-0.1l3.1-0.4v1.6c0,0.6,0.4,1,1,1s1-0.4,1-1v-1.9c1.6,0.6,3.4,0.9,5.1,0.9c0.6,0,1.3,0,1.9-0.1l4.2-0.6
		c0.5-0.1,0.9-0.6,0.9-1.1C63.9,11.1,63.4,10.7,62.9,10.8z"/>
	<path class="st0" d="M18.1,14.4v-1.9c1.6,0.6,3.4,0.9,5.1,0.9c0.6,0,1.3,0,1.9-0.1l4.2-0.6c0.5-0.1,0.9-0.6,0.9-1.1
		c-0.1-0.5-0.6-0.9-1.1-0.9l-4.2,0.6c-2.2,0.3-4.5,0-6.5-0.9l-0.3-0.1c0-0.5-0.5-0.9-1-0.9c-0.6,0-1,0.4-1,1v0.4l-3.4,0.5
		c-2.2,0.3-4.5,0-6.5-0.9l-0.9-0.4c-0.5-0.2-1.1,0-1.3,0.5c-0.2,0.5,0,1.1,0.5,1.3l0.9,0.4c1.8,0.7,3.7,1.1,5.6,1.1
		c0.6,0,1.3,0,1.9-0.1l3.1-0.4v1.6c0,0.6,0.4,1,1,1S18.1,15,18.1,14.4z"/>
</g>
</svg>
